<?xml version="1.0" encoding="utf-8"?>
<!-- Generator: Adobe Illustrator 16.0.0, SVG Export Plug-In . SVG Version: 6.00 Build 0)  -->
<!DOCTYPE svg PUBLIC "-//W3C//DTD SVG 1.1//EN" "http://www.w3.org/Graphics/SVG/1.1/DTD/svg11.dtd">
<svg version="1.1" id="Layer_1" xmlns="http://www.w3.org/2000/svg" xmlns:xlink="http://www.w3.org/1999/xlink" x="0px" y="0px"
	 width="80.682px" height="84.333px" viewBox="0 0 80.682 84.333" enable-background="new 0 0 80.682 84.333" xml:space="preserve">
<circle fill="#999999" cx="39.75" cy="41.083" r="37.25"/>
<rect x="19" y="27.333" fill="#999999" stroke="#F2F2F2" stroke-width="2" stroke-miterlimit="10" width="42" height="28"/>
<g>
	<path fill="#F2F2F2" d="M40,54.333l-0.728-27.179l0.416-0.328c2.987-2.355,6.152-3.549,9.408-3.549c5.54,0,9.358,3.46,9.516,3.607
		L59,27.208v27.266l-1.472-0.467c-2.587-0.846-5.332-1.275-8.118-1.275c-5.03,0-8.589,1.416-8.625,1.43L40,54.333z"/>
	<g id="XMLID_4_">
		<g>
			<path fill="#999999" d="M56.734,28.191v23.313c-2.372-0.633-4.839-0.96-7.349-0.96c-3.5,0-6.316,0.626-7.931,1.092V28.22
				c2.467-1.833,5.035-2.765,7.64-2.765C52.877,25.456,55.766,27.435,56.734,28.191z"/>
		</g>
	</g>
</g>
<g>
	<g id="XMLID_3_">
		<g>
			<path fill="#999999" d="M38.543,28.191v23.313c-2.372-0.633-4.839-0.96-7.349-0.96c-3.5,0-6.316,0.626-7.932,1.092V28.22
				c2.467-1.833,5.036-2.765,7.641-2.765C34.687,25.456,37.575,27.435,38.543,28.191z"/>
			<path fill="#F2F2F2" d="M38.543,51.505V28.191c-0.968-0.757-3.856-2.736-7.64-2.736c-2.605,0-5.174,0.931-7.641,2.765v23.416
				c1.616-0.466,4.432-1.092,7.932-1.092C33.704,50.544,36.171,50.872,38.543,51.505z M40.376,26.881l-0.378,0.328v27.119
				l-0.706-0.32c-2.583-0.852-5.312-1.281-8.099-1.281c-5.028,0-8.579,1.419-8.608,1.434l-1.506,0.611V27.151l0.415-0.328
				c2.991-2.35,6.156-3.551,9.409-3.551C36.44,23.272,40.224,26.736,40.376,26.881z"/>
		</g>
	</g>
</g>
<line fill="none" stroke="#F2F2F2" stroke-miterlimit="10" x1="44" y1="29.833" x2="55" y2="29.833"/>
<line fill="none" stroke="#F2F2F2" stroke-miterlimit="10" x1="44" y1="32.833" x2="55" y2="32.833"/>
<line fill="none" stroke="#F2F2F2" stroke-miterlimit="10" x1="44" y1="35.833" x2="55" y2="35.833"/>
<line fill="none" stroke="#F2F2F2" stroke-miterlimit="10" x1="44" y1="38.833" x2="55" y2="38.833"/>
<line fill="none" stroke="#F2F2F2" stroke-miterlimit="10" x1="44" y1="41.833" x2="55" y2="41.833"/>
<line fill="none" stroke="#F2F2F2" stroke-miterlimit="10" x1="44" y1="44.833" x2="55" y2="44.833"/>
<line fill="none" stroke="#F2F2F2" stroke-miterlimit="10" x1="44" y1="47.833" x2="55" y2="47.833"/>
<line fill="none" stroke="#F2F2F2" stroke-miterlimit="10" x1="25" y1="29.833" x2="36" y2="29.833"/>
<line fill="none" stroke="#F2F2F2" stroke-miterlimit="10" x1="25" y1="32.833" x2="36" y2="32.833"/>
<line fill="none" stroke="#F2F2F2" stroke-miterlimit="10" x1="25" y1="35.833" x2="36" y2="35.833"/>
<line fill="none" stroke="#F2F2F2" stroke-miterlimit="10" x1="25" y1="38.833" x2="36" y2="38.833"/>
<line fill="none" stroke="#F2F2F2" stroke-miterlimit="10" x1="25" y1="41.833" x2="36" y2="41.833"/>
<line fill="none" stroke="#F2F2F2" stroke-miterlimit="10" x1="25" y1="44.833" x2="36" y2="44.833"/>
<line fill="none" stroke="#F2F2F2" stroke-miterlimit="10" x1="25" y1="47.833" x2="36" y2="47.833"/>
</svg>
