<?xml version="1.0" encoding="utf-8"?>
<!-- Generator: Adobe Illustrator 16.0.0, SVG Export Plug-In . SVG Version: 6.00 Build 0)  -->
<!DOCTYPE svg PUBLIC "-//W3C//DTD SVG 1.1//EN" "http://www.w3.org/Graphics/SVG/1.1/DTD/svg11.dtd">
<svg version="1.1" id="Layer_1" xmlns="http://www.w3.org/2000/svg" xmlns:xlink="http://www.w3.org/1999/xlink" x="0px" y="0px"
	 width="81.638px" height="85.333px" viewBox="0 0 81.638 85.333" enable-background="new 0 0 81.638 85.333" xml:space="preserve">
<circle fill="#F7931E" cx="41.435" cy="43.188" r="37.25"/>
<g>
	<path fill="#FFFFFF" d="M25.856,41.731c3.904,0,4.454-2.145,4.454-4.069c0-1.54-0.22-3.08-0.44-4.619
		c-0.22-1.54-0.44-3.025-0.44-4.564c0-5.06,3.3-7.204,7.974-7.204h1.155v3.024h-0.99c-3.245,0-4.345,1.76-4.345,4.729
		c0,1.265,0.165,2.584,0.385,3.904c0.22,1.375,0.385,2.695,0.385,4.18c0.055,3.52-1.485,5.279-3.959,5.939v0.11
		c2.475,0.604,4.015,2.475,3.959,5.994c0,1.485-0.165,2.859-0.385,4.179c-0.22,1.375-0.385,2.64-0.385,3.959
		c0,3.08,1.265,4.785,4.345,4.785h0.99v3.024h-1.155c-4.564,0-7.974-1.98-7.974-7.534c0-1.485,0.22-3.024,0.44-4.509
		c0.22-1.485,0.44-2.97,0.44-4.454c0-1.705-0.55-4.07-4.454-4.07V41.731z"/>
	<path fill="#FFFFFF" d="M57.014,44.536c-3.904,0-4.455,2.365-4.455,4.07c0,1.484,0.22,2.969,0.44,4.454
		c0.22,1.485,0.44,3.024,0.44,4.509c0,5.554-3.464,7.534-7.974,7.534h-1.155v-3.024h0.935c3.08-0.055,4.399-1.705,4.399-4.785
		c0-1.32-0.22-2.584-0.385-3.959c-0.22-1.32-0.44-2.694-0.44-4.179c0-3.52,1.54-5.39,3.959-5.994v-0.11
		c-2.42-0.66-3.959-2.419-3.959-5.939c0-1.485,0.22-2.805,0.44-4.18c0.165-1.32,0.385-2.64,0.385-3.904
		c0-2.97-1.155-4.674-4.344-4.729h-0.99v-3.024h1.1c4.674,0,8.029,2.145,8.029,7.204c0,1.54-0.22,3.024-0.44,4.564
		c-0.22,1.54-0.44,3.08-0.44,4.619c0,1.925,0.55,4.069,4.455,4.069V44.536z"/>
</g>
</svg>
