<?xml version="1.0" encoding="utf-8"?>
<!-- Generator: Adobe Illustrator 16.0.0, SVG Export Plug-In . SVG Version: 6.00 Build 0)  -->
<!DOCTYPE svg PUBLIC "-//W3C//DTD SVG 1.1//EN" "http://www.w3.org/Graphics/SVG/1.1/DTD/svg11.dtd">
<svg version="1.1" id="Layer_1" xmlns="http://www.w3.org/2000/svg" xmlns:xlink="http://www.w3.org/1999/xlink" x="0px" y="0px"
	 width="80.682px" height="84.333px" viewBox="0 0 80.682 84.333" enable-background="new 0 0 80.682 84.333" xml:space="preserve">
<circle fill="#999999" cx="40.555" cy="41.241" r="37.25"/>
<circle fill="#999999" stroke="#F2F2F2" stroke-width="5" stroke-miterlimit="10" cx="32.707" cy="33.037" r="15.751"/>
<path fill="#F2F2F2" d="M62.337,59.177c0.778,0.777,0.368,2.45-0.914,3.732l-0.273,0.274c-1.284,1.283-2.955,1.692-3.733,0.914
	L40.834,47.516c-0.778-0.779-0.369-2.451,0.914-3.733l0.273-0.273c1.284-1.283,2.955-1.692,3.734-0.915L62.337,59.177z"/>
<g>
	<path fill="#F2F2F2" d="M40.21,26.184c-0.433,0.325-1.095,0.22-1.545-0.178c-1.51-1.348-3.437-2.146-5.474-2.287
		c-2.033-0.142-4.176,0.371-6.048,1.645c-0.557,0.376-1.258,0.426-1.595,0.001c-0.056-0.074-0.112-0.149-0.168-0.224
		c-0.334-0.424-0.063-1.251,0.643-1.716c2.238-1.479,4.794-2.093,7.243-1.939c2.582,0.162,5.044,1.176,6.969,2.928
		c0.578,0.527,0.629,1.277,0.196,1.597C40.357,26.069,40.284,26.126,40.21,26.184z"/>
</g>
</svg>
