<?xml version="1.0" encoding="utf-8"?>
<!-- Generator: Adobe Illustrator 16.0.0, SVG Export Plug-In . SVG Version: 6.00 Build 0)  -->
<!DOCTYPE svg PUBLIC "-//W3C//DTD SVG 1.1//EN" "http://www.w3.org/Graphics/SVG/1.1/DTD/svg11.dtd">
<svg version="1.1" id="Layer_1" xmlns="http://www.w3.org/2000/svg" xmlns:xlink="http://www.w3.org/1999/xlink" x="0px" y="0px"
	 width="1149.115px" height="648.065px" viewBox="0 0 1149.115 648.065" enable-background="new 0 0 1149.115 648.065"
	 xml:space="preserve">
<path fill="#F2F2F2" d="M1118.289,477.5c0,0-2.658-34.55,2.657-50.496c5.315-15.946-5.32-34.55-5.32-34.55l-5.32-37.208
	l-31.903-10.631l-31.913-156.803l-85.087-21.262l-143.598,18.604l-5.481,106.307l-29.566-2.658l9.966-209.957L464.5,62.903
	l-42.523,7.973l-9.12-26.577l-30.381,2.658v24.342h-96V49.615l-19.953-2.658l-4.661,21.261c0,0-66.115-5.315-74.088,0
	S20.505,365.878,20.505,387.14s89.342,106.307,89.342,106.307l102.63-37.208v15.946l31,10.631v29.234l-23.701,2.658l4.76,23.919
	l69.486,14.534l1.051,33.138h9.8c0,0,8.152-97.14,102.486-95.593c81.059,1.329,104.937,67.147,104.937,67.147l58.49,2.346
	c0,0,5.326,29.079,10.641,47.683c5.315,18.604,131.565,13.127,150.169,10.469c18.604-2.658,6.642-58.424,6.642-58.424l100.995-0.705
	c0,0,15.282-75.078,105.643-72.421c90.361,2.658,95.012,93.684,95.012,93.684l38.537,21.929l42.522-37.21l7.973-63.785
	L1118.289,477.5z M414.477,253.36c-16-11.988-29.271-17.983-44.594-17.983c-16.886,0-31.167,6.065-42.727,18.196
	c-11.638,12.061-17.482,26.815-17.482,44.267c0,17.238,5.802,31.783,17.438,43.628c11.632,11.848,25.885,17.771,42.77,17.771
	c8.726,0,16.136-1.417,22.238-4.256c3.405-1.417,7.043-3.333,10.7-5.746c3.652-2.411,5.657-5.321,11.657-8.726v29.954
	c-16,8.053-29.2,12.079-44.807,12.079c-23.482,0-43.578-8.194-60.178-24.581c-16.532-16.527-24.824-36.463-24.824-59.803
	c0-20.926,6.902-39.584,20.736-55.972c17.026-20.075,39.161-30.114,66.189-30.114c14.754,0,26.884,3.992,42.884,11.97V253.36z
	 M527.576,367.635c-10.146,9.94-22.738,14.908-37.776,14.908c-14.259,0-26.037-4.241-35.329-12.72
	c-9.151-8.474-14.864-20.374-17.132-35.697l25.113-5.534c1.134,9.65,3.12,16.317,5.959,20.005
	c5.108,7.096,12.557,10.641,22.346,10.641c7.732,0,14.153-2.587,19.261-7.76c5.107-5.175,7.661-11.734,7.661-19.673
	c0-3.19-0.443-6.115-1.331-8.772c-0.888-2.66-2.271-5.105-4.147-7.337c-1.882-2.234-4.311-4.327-7.291-6.273
	c-2.979-1.949-6.527-3.812-10.641-5.585l-15.855-6.592c-22.489-9.499-33.732-23.392-33.732-41.682
	c0-12.333,4.716-22.65,14.153-30.942c9.434-8.365,21.176-12.549,35.222-12.549c18.941,0,33.732,9.188,44.374,27.561l-20.112,11.918
	c-3.761-6.524-7.342-10.781-10.748-12.769c-3.548-2.269-8.124-3.405-13.727-3.405c-6.883,0-12.593,1.955-17.132,5.858
	c-4.542,3.833-6.811,8.661-6.811,14.482c0,8.022,5.959,14.482,17.877,19.379l16.388,6.709c13.335,5.396,23.091,11.98,29.263,19.753
	c6.172,7.776,9.258,17.306,9.258,28.591C542.687,345.273,537.649,357.768,527.576,367.635z M654.631,367.635
	c-10.146,9.94-22.738,14.908-37.776,14.908c-14.259,0-26.037-4.241-35.329-12.72c-9.151-8.474-14.864-20.374-17.132-35.697
	l25.113-5.534c1.134,9.65,3.12,16.317,5.959,20.005c5.108,7.096,12.557,10.641,22.346,10.641c7.731,0,14.153-2.587,19.26-7.76
	c5.108-5.175,7.662-11.734,7.662-19.673c0-3.19-0.444-6.115-1.331-8.772c-0.888-2.66-2.271-5.105-4.147-7.337
	c-1.882-2.234-4.311-4.327-7.291-6.273c-2.979-1.949-6.527-3.812-10.641-5.585l-15.855-6.592
	c-22.489-9.499-33.732-23.392-33.732-41.682c0-12.333,4.716-22.65,14.152-30.942c9.435-8.365,21.176-12.549,35.222-12.549
	c18.941,0,33.732,9.188,44.373,27.561l-20.111,11.918c-3.761-6.524-7.342-10.781-10.748-12.769
	c-3.548-2.269-8.124-3.405-13.727-3.405c-6.883,0-12.593,1.955-17.132,5.858c-4.542,3.833-6.81,8.661-6.81,14.482
	c0,8.022,5.959,14.482,17.877,19.379l16.387,6.709c13.335,5.396,23.091,11.98,29.263,19.753c6.172,7.776,9.258,17.306,9.258,28.591
	C669.741,345.273,664.704,357.768,654.631,367.635z M1022.612,347.939c-21.261,7.973-100.992-0.665-108.964-5.98
	c-7.973-5.315,0-132.884,0-132.884c95.676-10.63,88.368,13.953,96.34,24.583C1017.961,244.29,1043.874,339.966,1022.612,347.939z"/>
<path fill="#FFFFFF" d="M164.477,544.299"/>
</svg>
